<svg width="512" height="512" viewBox="0 0 512 512" fill="none" xmlns="http://www.w3.org/2000/svg">
<rect width="512" height="512" rx="20" fill="#626880"/>
<rect x="25" y="25" width="462" height="462" rx="20" fill="#303446"/>
<path d="M83.16 275.66V236.72H101.4V241.88H106.68V246.98H112.02V265.4H106.68V270.56H101.4V275.66H83.16ZM90.78 267.5H99.06V262.34H104.34V250.04H99.06V244.94H90.78V267.5ZM124.592 275.66V270.56H119.312V252.14H124.592V246.98H142.832V252.14H148.172V270.56H142.832V275.66H124.592ZM126.932 267.5H140.492V255.14H126.932V267.5ZM155.465 275.66V267.5H176.645V265.4H160.745V260.24H155.465V252.14H160.745V246.98H184.325V255.14H163.085V257.18H178.985V262.34H184.325V270.56H178.985V275.66H155.465ZM191.617 275.66V236.72H209.857V241.88H215.137V246.98H220.477V265.4H215.137V270.56H209.857V275.66H191.617ZM199.237 267.5H207.517V262.34H212.797V250.04H207.517V244.94H199.237V267.5ZM227.769 275.66V246.98H235.389V275.66H227.769ZM227.769 244.94V236.72H235.389V244.94H227.769ZM242.711 275.66V267.5H263.891V265.4H247.991V260.24H242.711V252.14H247.991V246.98H271.571V255.14H250.331V257.18H266.231V262.34H271.571V270.56H266.231V275.66H242.711ZM282.971 275.66V270.56H277.691V252.14H282.971V246.98H301.211V252.14H306.551V267.5H311.891V275.66H304.211V270.56H301.211V275.66H282.971ZM285.311 267.5H298.871V255.14H285.311V267.5ZM317.418 275.66V267.5H338.598V265.4H322.698V260.24H317.418V252.14H322.698V246.98H346.278V255.14H325.038V257.18H340.938V262.34H346.278V270.56H340.938V275.66H317.418ZM352.398 275.66V267.5H373.578V265.4H357.678V260.24H352.398V252.14H357.678V246.98H381.258V255.14H360.018V257.18H375.918V262.34H381.258V270.56H375.918V275.66H352.398ZM388.551 275.66V246.98H406.791V252.14H409.731V246.98H422.751V252.14H427.971V275.66H420.411V255.14H412.071V275.66H404.451V255.14H396.171V275.66H388.551Z" fill="white"/>
</svg>
